<?xml version="1.0"?>
<svg xmlns="http://www.w3.org/2000/svg" xmlns:xlink="http://www.w3.org/1999/xlink" xmlns:svgjs="http://svgjs.com/svgjs" version="1.1" width="512" height="512" x="0" y="0" viewBox="0 0 256 256" style="enable-background:new 0 0 512 512" xml:space="preserve" class=""><g><path xmlns="http://www.w3.org/2000/svg" d="M137,12.59A115.4,115.4,0,0,0,22.047,118.25H9.11A5.569,5.569,0,0,0,4.287,126.6l23.676,41a5.569,5.569,0,0,0,9.646,0l23.672-41a5.569,5.569,0,0,0-4.823-8.354H44.437a93.125,93.125,0,1,1,30.95,79.54,11.14,11.14,0,0,0-14.77,16.68,115.085,115.085,0,0,0,76.42,28.94h.07A115.41,115.41,0,1,0,137,12.59Z" fill="#000000" data-original="#fc5d3d" style="" class=""/><path xmlns="http://www.w3.org/2000/svg" d="M154.69,133.67a11.233,11.233,0,0,0,11.24,11.24h24.65v24.3a5.433,5.433,0,0,1-5.44,5.44H85.66a5.431,5.431,0,0,1-5.43-5.44V89.78a8.415,8.415,0,0,0,8.66,8.41h96.25a5.439,5.439,0,0,1,5.44,5.44v18.8H165.93A11.237,11.237,0,0,0,154.69,133.67Z" fill="#00000000" data-original="#72c1e8" style="" class=""/><path xmlns="http://www.w3.org/2000/svg" d="M190.582,86.791v16.84a5.44,5.44,0,0,0-5.438-5.438H88.889a8.422,8.422,0,1,1-.245-16.84h96.5A5.44,5.44,0,0,1,190.582,86.791Z" fill="#00000000" data-original="#afafaf" style="" class=""/><path xmlns="http://www.w3.org/2000/svg" d="M191.53,122.43h-25.6a11.24,11.24,0,1,0,0,22.48h25.6a2.723,2.723,0,0,0,2.72-2.72V125.15A2.723,2.723,0,0,0,191.53,122.43Z" fill="#00000000" data-original="#afafaf" style="" class=""/><path xmlns="http://www.w3.org/2000/svg" d="M137.107,234.91a106.779,106.779,0,0,1-56.113-15.855,2.5,2.5,0,1,1,2.624-4.256,101.94,101.94,0,0,0,155.349-86.738v-.135A101.917,101.917,0,0,0,35.5,119.371a2.5,2.5,0,1,1-4.982-.415,106.916,106.916,0,0,1,213.449,8.97v.135A106.842,106.842,0,0,1,137.107,234.91ZM74.03,208.09,69.786,204.3a2.6,2.6,0,0,0-3.6.076h0a2.6,2.6,0,0,0,.152,3.819l4.593,3.826a2.5,2.5,0,0,0,3.1-3.93Z" fill="#000000" data-original="#ffcbc2" style="" class=""/><path xmlns="http://www.w3.org/2000/svg" d="M178.5,164.5h-4a2.5,2.5,0,0,1,0-5h4a2.5,2.5,0,0,1,0,5Zm-14,0H92a2.5,2.5,0,0,1-2.5-2.5V112.5a2.5,2.5,0,0,1,5,0v47h70a2.5,2.5,0,0,1,0,5Z" fill="#000000" data-original="#c5e5ff" style="" class=""/><path xmlns="http://www.w3.org/2000/svg" d="M57.8,197.09a13.613,13.613,0,0,0,1.161,19.25,117.6,117.6,0,0,0,78.08,29.57h.069a117.6,117.6,0,0,0,87.36-38.77,2.52,2.52,0,0,0-.17-3.54,2.574,2.574,0,0,0-3.529.18,113.135,113.135,0,0,1-83.661,37.13h-.069A112.579,112.579,0,0,1,62.279,212.6,8.64,8.64,0,0,1,73.73,199.66,95.639,95.639,0,1,0,199.349,55.42a2.566,2.566,0,0,0-3.52.27,2.493,2.493,0,0,0,.27,3.53,90.639,90.639,0,1,1-119.05,136.7A13.655,13.655,0,0,0,57.8,197.09Z" fill="#000000" data-original="#000000" style="" class=""/><path xmlns="http://www.w3.org/2000/svg" d="M191.869,52.64a2.5,2.5,0,0,0-.65-3.48,2.556,2.556,0,0,0-3.469.64,2.5,2.5,0,1,0,4.119,2.84Z" fill="#000000" data-original="#000000" style="" class=""/><path xmlns="http://www.w3.org/2000/svg" d="M137,10.09A117.913,117.913,0,0,0,19.77,115.75H9.109a8.078,8.078,0,0,0-6.99,12.11L25.8,168.85a8.064,8.064,0,0,0,13.971.01l23.679-41.01a8.072,8.072,0,0,0-6.989-12.1H47.25A90.683,90.683,0,0,1,180.089,48.21a2.564,2.564,0,0,0,3.391-1.02,2.5,2.5,0,0,0-1.011-3.38,95.682,95.682,0,0,0-140.52,74.18,2.508,2.508,0,0,0,2.491,2.76H56.46a3.075,3.075,0,0,1,2.659,4.6l-23.679,41a3.059,3.059,0,0,1-5.31,0l-23.681-41a3.017,3.017,0,0,1-.42-1.52,3.1,3.1,0,0,1,3.08-3.08h12.94a2.519,2.519,0,0,0,2.491-2.29C29.344,60.8,78.407,15.09,137.109,15.09a112.942,112.942,0,0,1,95.48,173.14,2.5,2.5,0,0,0,4.23,2.67,117.444,117.444,0,0,0,18.15-62.85v-.01A117.852,117.852,0,0,0,137,10.09Z" fill="#000000" data-original="#000000" style="" class=""/><path xmlns="http://www.w3.org/2000/svg" d="M227.009,196.26a2.5,2.5,0,1,0,3.511-.48A2.561,2.561,0,0,0,227.009,196.26Z" fill="#000000" data-original="#000000" style="" class=""/><path xmlns="http://www.w3.org/2000/svg" d="M88.643,78.848A10.891,10.891,0,0,0,77.737,89.707c-.011.381-.007,30-.007,30.383a2.5,2.5,0,0,0,5,0V98.95a12.1,12.1,0,0,0,6.119,1.74h96.3a2.956,2.956,0,0,1,2.926,2.943c0,.012,0,.022,0,.034V119.93h-22.15a13.74,13.74,0,0,0,0,27.48h22.15v21.81a2.94,2.94,0,0,1-2.929,2.93H85.659a2.94,2.94,0,0,1-2.929-2.93V140.08a2.5,2.5,0,0,0-5,0v29.14a7.954,7.954,0,0,0,7.929,7.93H185.15a7.941,7.941,0,0,0,7.929-7.93V147.144a5.213,5.213,0,0,0,3.671-4.954V125.15a5.216,5.216,0,0,0-3.671-4.958c0-31.221,0-2.18,0-33.4a7.946,7.946,0,0,0-7.93-7.944ZM191.529,124.93a.222.222,0,0,1,.221.22v17.04a.214.214,0,0,1-.221.21h-25.6a8.735,8.735,0,1,1,0-17.47Zm-3.453-38.138v9.459a8.081,8.081,0,0,0-2.93-.562H88.891a5.923,5.923,0,1,1-.248-11.841h96.5A2.941,2.941,0,0,1,188.076,86.792Z" fill="#000000" data-original="#000000" style="" class=""/><path xmlns="http://www.w3.org/2000/svg" d="M80.23,132.59a2.5,2.5,0,1,0-2.5-2.51A2.51,2.51,0,0,0,80.23,132.59Z" fill="#000000" data-original="#000000" style="" class=""/><path xmlns="http://www.w3.org/2000/svg" d="M164.329,133.08a2.508,2.508,0,0,0,2.5,2.5H169.5a2.5,2.5,0,0,0,0-5h-2.671A2.508,2.508,0,0,0,164.329,133.08Z" fill="#000000" data-original="#000000" style="" class=""/></g></svg>
